<?xml version="1.0" encoding="UTF-8" standalone="no"?>
<svg width="128px" height="128px" viewBox="0 0 128 128" version="1.1" xmlns="http://www.w3.org/2000/svg" xmlns:xlink="http://www.w3.org/1999/xlink">
    <!-- Generator: Sketch 44 (41411) - http://www.bohemiancoding.com/sketch -->
    <title>网站logo128无字</title>
    <desc>Created with Sketch.</desc>
    <defs></defs>
    <g id="Page-1" stroke="none" stroke-width="1" fill="none" fill-rule="evenodd">
        <g>
            <path d="M128,64 C128,99.346 99.346,128 64,128 C28.654,128 0,99.346 0,64 C0,28.654 28.654,0 64,0 C99.346,0 128,28.654 128,64" id="Fill-1" fill="#26272B"></path>
            <g id="Group-4" transform="translate(45.000000, 89.000000)" fill="#FFFFFF">
                <path d="M2,0 C0.495958101,3.17248136 0,7.96157614 0,8 C0,7.96157614 2.45929637,14.1821086 11,23 C10.4099966,22.5591054 10.3146989,15.8153781 18,11 C18,11.2428115 6.12774678,5.71693291 2,0" id="Fill-10"></path>
                <path d="M36,0 C37.5040701,3.17248136 38,7.96157614 38,8 C38,7.96157614 35.5408436,14.1821086 27,23 C27.5895714,22.5591054 27.6858883,15.8153781 20,11 C20,11.2428115 31.872602,5.71693291 36,0" id="Fill-12"></path>
            </g>
            <g id="Group-2" transform="translate(30.000000, 20.000000)" fill="#FFFFFF">
                <path d="M34,53 C32.100134,51.7422602 29.6228027,54.565918 29,55 C28.3771973,55.434082 26.0482263,57.6764115 22,58 C18.7059965,58.3995147 17.0290527,56.1573486 17,54 C16.9709473,51.8426514 18.1884328,52 18,52 C15.8814313,52 15.1584473,55.8426514 17,58 C18.6710861,59.9576498 23.2209473,62.184082 29,61 C31.4142998,60.5053291 33.0741803,59.4206735 34.0256204,58.1611642 C34.9844914,59.4206735 36.6360853,60.5053291 39,61 C44.6584473,62.184082 49.5645087,60.0000537 51,58 C52.90979,55.3391113 52.1185687,52 50,52 C49.8115672,52 51.00354,51.9953613 51,54 C50.99646,56.0046387 49.2940035,58.3995147 46,58 C41.9517737,57.6764115 39.75354,55.6203613 39,55 C38.24646,54.3796387 35.899866,51.7422602 34,53 Z M68,41.5005009 C68,57.7929436 52.7769729,71 33.9994984,71 C15.2220239,71 0,57.7929436 0,41.5005009 C0,25.2070564 15.2220239,12 33.9994984,12 C52.7769729,12 68,25.2070564 68,41.5005009 Z M18.5,44 C20.9852814,44 23,41.9852814 23,39.5 C23,37.0147186 20.9852814,35 18.5,35 C16.0147186,35 14,37.0147186 14,39.5 C14,41.9852814 16.0147186,44 18.5,44 Z M49.5,44 C51.9852814,44 54,41.9852814 54,39.5 C54,37.0147186 51.9852814,35 49.5,35 C47.0147186,35 45,37.0147186 45,39.5 C45,41.9852814 47.0147186,44 49.5,44 Z" id="Combined-Shape"></path>
                <path d="M48,14.930428 C53.1896854,6.67269981 59.0908111,0 62.1451676,0 C68.3274433,0 67.9969158,27.3210153 67.9969158,39.8324523 C67.9969158,40.2309566 67.9908695,40.6184746 67.9767616,41 C62.1451676,36.3314837 50.2942094,29.4650249 48,14.930428 Z M64,23 C63.9359732,21.5770393 63.8612752,20.1651561 63.7681453,18.7814703 C63.1754123,9.84592145 62.1674751,5.78147029 61.5068348,4 C59.3687274,5.65256798 56.2323838,9.51359517 53,14.3685801 C57.1811447,16.6787513 60.8995502,19.6012085 64,23 Z" id="Combined-Shape"></path>
                <path d="M20,14.930428 C14.8103213,31.203585 2.01659097,39.0688014 0.0232638734,41 C0.00915600892,40.6184746 0.00310978127,40.2309566 0.00310978127,39.8324523 C0.00310978127,27.3210153 -0.328425034,0 5.85485043,0 C8.90819539,0 14.8103213,6.67269981 20,14.930428 Z M4.23185466,18.7814703 C4.13969486,20.1651561 4.06402681,21.5770393 4,23 C7.10044978,19.6012085 10.8188553,16.6787513 15,14.3685801 C11.7676162,9.51359517 8.6312726,5.65256798 6.49316518,4 C5.83252491,5.78147029 4.82458771,9.84592145 4.23185466,18.7814703 Z" id="Combined-Shape"></path>
                <path d="M36,87 C36,85.8946667 35.105035,85 34,85 C32.894965,85 32,85.8946667 32,87 C32,88.1053333 32.894965,89 34,89 C35.105035,89 36,88.1053333 36,87" id="Fill-14"></path>
                <path d="M36,93 C36,91.8946667 35.105035,91 34,91 C32.894965,91 32,91.8946667 32,93 C32,94.1053333 32.894965,95 34,95 C35.105035,95 36,94.1053333 36,93" id="Fill-16"></path>
            </g>
        </g>
    </g>
</svg>