<?xml version="1.0" encoding="UTF-8" standalone="no"?>
<svg width="32px" height="32px" viewBox="0 0 32 32" version="1.1" xmlns="http://www.w3.org/2000/svg" xmlns:xlink="http://www.w3.org/1999/xlink">
    <!-- Generator: Sketch 44 (41411) - http://www.bohemiancoding.com/sketch -->
    <title>网站logo32</title>
    <desc>Created with Sketch.</desc>
    <defs></defs>
    <g id="Page-1" stroke="none" stroke-width="1" fill="none" fill-rule="evenodd">
        <g id="Page-1-Copy-3">
            <path d="M32,16 C32,24.8365 24.8365,32 16,32 C7.1635,32 0,24.8365 0,16 C0,7.1635 7.1635,0 16,0 C24.8365,0 32,7.1635 32,16" id="Fill-1" fill="#26272B"></path>
            <g id="Group-4" transform="translate(10.000000, 23.000000)" fill="#FFFFFF">
                <path d="M1,0 C0.137766139,0.827603834 0,2.07693291 0,2 C0,2.07693291 0.68313788,3.69968051 3,6 C2.89166572,5.88498403 2.86519413,4.1257508 5,3 C5,2.93290735 1.70215188,1.4913738 1,0" id="Fill-10"></path>
                <path d="M11,0 C11.8622417,0.827603834 12,2.07693291 12,2 C12,2.07693291 11.316901,3.69968051 9,6 C9.10821427,5.88498403 9.13496898,4.1257508 7,3 C7,2.93290735 10.297945,1.4913738 11,0" id="Fill-12"></path>
            </g>
            <g id="Group-2" transform="translate(7.000000, 5.000000)">
                <path d="M18,11.0001358 C18,15.4184254 13.9703752,19 8.99986722,19 C4.02935926,19 -5.32907052e-15,15.4184254 -5.32907052e-15,11.0001358 C-5.32907052e-15,6.58157461 4.02935926,3 8.99986722,3 C13.9703752,3 18,6.58157461 18,11.0001358 Z M5,11 C5.55228475,11 6,10.5522847 6,10 C6,9.44771525 5.55228475,9 5,9 C4.44771525,9 4,9.44771525 4,10 C4,10.5522847 4.44771525,11 5,11 Z M13,11 C13.5522847,11 14,10.5522847 14,10 C14,9.44771525 13.5522847,9 13,9 C12.4477153,9 12,9.44771525 12,10 C12,10.5522847 12.4477153,11 13,11 Z M5.35866532,13.427087 C5.37310791,13.0322266 5.73206664,13 5.67286173,13 C5.00721505,13 4.80044194,14.0176469 5.32205318,14.5332082 C5.73022461,14.9366455 7.14728416,15.1571376 8.13406688,14.9218916 C9.12084961,14.6866455 9.00836182,13.6900635 9.01263428,13.3272705 C9.01690674,12.9644775 7.99884033,13.0303955 8.01446533,13.2502441 C8.03009033,13.4700928 7.93940173,14.2178539 6.918396,14.2640991 C5.89739026,14.3103443 5.34422274,13.8219475 5.35866532,13.427087 Z M12.6840453,13.427087 C12.6984878,13.8219475 12.1453203,14.3103443 11.1243146,14.2640991 C10.1033088,14.2178539 10.0126203,13.4700928 10.0282453,13.2502441 C10.0438703,13.0303955 9.02580384,12.9644775 9.0300763,13.3272705 C9.03434877,13.6900635 8.92186097,14.6866455 9.9086437,14.9218916 C10.8954264,15.1571376 12.312486,14.9366455 12.7206574,14.5332082 C13.2422686,14.0176469 13.0354955,13 12.3698489,13 C12.3106439,13 12.6696027,13.0322266 12.6840453,13.427087 Z" id="Combined-Shape" fill="#FFFFFF"></path>
                <circle id="Oval-2" fill="#26272B" cx="5" cy="10" r="1"></circle>
                <circle id="Oval-2-Copy" fill="#26272B" cx="13" cy="10" r="1"></circle>
                <path d="M17.8441195,3.63841843 C18.9874806,5.21582215 13.4821377,10.5293833 13.0004968,11 C12.997088,10.9070255 13.0123385,9.80394225 13.0123385,9.70683014 C13.0123385,6.65789927 12.9322308,0 14.4262748,0 C15.1640442,0 16.590155,1.62608024 17.8441195,3.63841843 Z M14.002883,4.45205591 C13.9997517,4.80112965 14.0197161,5.64358785 14.0014808,6 C14.8845115,5.14869709 15.4128172,4.54958101 16.6036377,3.97094727 C15.9411621,2.55847168 15.0816687,1.71866748 14.4786377,1.37719727 C14.2904825,1.82340611 14.0161133,2.97717285 14.002883,4.45205591 Z" id="Combined-Shape-Copy" fill="#FFFFFF" transform="translate(15.500000, 5.500000) scale(-1, 1) translate(-15.500000, -5.500000) "></path>
                <path d="M4.84411948,3.63841843 C5.9874806,5.21582215 0.482137682,10.5293833 0.000496792405,11 C-0.00291204321,10.9070255 0.0123384827,9.80394225 0.0123384827,9.70683014 C0.0123384827,6.65789927 -0.0677691543,0 1.4262748,0 C2.16404422,0 3.59015495,1.62608024 4.84411948,3.63841843 Z M1.00288303,4.45205591 C0.999751703,4.80112965 1.01971608,5.64358785 1.00148078,6 C1.88451148,5.14869709 2.41281719,4.54958101 3.6036377,3.97094727 C2.94116211,2.55847168 2.0816687,1.71866748 1.4786377,1.37719727 C1.29048253,1.82340611 1.01611328,2.97717285 1.00288303,4.45205591 Z" id="Combined-Shape-Copy" fill="#FFFFFF"></path>
                <path d="M10,22.5 C10,22.2236667 9.55251751,22 9,22 C8.44748249,22 8,22.2236667 8,22.5 C8,22.7763333 8.44748249,23 9,23 C9.55251751,23 10,22.7763333 10,22.5" id="Fill-14" fill="#FFFFFF"></path>
                <path d="M10,24.5 C10,24.2236667 9.55251751,24 9,24 C8.44748249,24 8,24.2236667 8,24.5 C8,24.7763333 8.44748249,25 9,25 C9.55251751,25 10,24.7763333 10,24.5" id="Fill-16" fill="#FFFFFF"></path>
            </g>
        </g>
    </g>
</svg>